# xmcd CD database file
#
# Track frame offsets:
#	150
#	14515
#	28067
#	42477
#	57396
#	71580
#	83081
#	94836
#	107733
#	120097
#	130877
#	157587
#	183241
#	203781
#	229763
#
# Disc length: 3326 seconds
#
# Revision: 1
# Processed by: cddbd v1.4PL0 Copyright (c) Steve Scherf et al.
# Submitted via: CDex 1.50Beta7
#
DISCID=bd0cfc0f
DTITLE=Miles Davis - Milestones
DYEAR=1900
DGENRE=Jazz
TTITLE0=Venus de Milo
TTITLE1=Boplicity
TTITLE2=Jeru
TTITLE3=Moon Dreams
TTITLE4=Godchild
TTITLE5=Move
TTITLE6=Milestones
TTITLE7=Little Willie Leaps
TTITLE8=Half Nelson
TTITLE9=Sippin' At Bells
TTITLE10=Ray's Idea
TTITLE11=Woody'n You
TTITLE12=Rifftide
TTITLE13=Good Bait
TTITLE14=Don't Blame Me
EXTD=
EXTT0=
EXTT1=
EXTT2=
EXTT3=
EXTT4=
EXTT5=
EXTT6=
EXTT7=
EXTT8=
EXTT9=
EXTT10=
EXTT11=
EXTT12=
EXTT13=
EXTT14=
PLAYORDER=
